<svg width="20" height="20" viewBox="0 0 20 20" fill="none" xmlns="http://www.w3.org/2000/svg">
<path d="M19.5 7.6H15.3V4.9C15.2 2.2 12.9 0 10 0C7.1 0 4.8 2.2 4.8 4.9V7.6H0.5C0.2 7.6 0 7.8 0 8.1V19.5C0 19.8 0.2 20 0.5 20H19.5C19.8 20 20 19.8 20 19.5V8.1C20 7.8 19.8 7.6 19.5 7.6ZM5.8 4.9C5.8 2.8 7.7 1 10 1C12.3 1 14.2 2.8 14.2 4.9V7.6H5.8V4.9ZM19 19H1V8.6H19V19Z" fill="#B1B1B1"/>
<path d="M9.20002 15.2H10.7V13.9C10.8 13.7 10.9 13.5 10.9 13.3C10.9 12.7 10.5 12.3 9.90002 12.3C9.30002 12.3 8.90002 12.7 8.90002 13.3C8.90002 13.5 9.00002 13.8 9.20002 13.9V15.2Z" fill="#B1B1B1"/>
</svg>
